<svg xmlns="http://www.w3.org/2000/svg" xmlns:xlink="http://www.w3.org/1999/xlink" width="33" height="33" viewBox="0 0 33 33">
  <defs>
    <clipPath id="clip-path">
      <rect id="Rect치ngulo_41" data-name="Rect치ngulo 41" width="23.41" height="23.41" fill="#008eff"/>
    </clipPath>
  </defs>
  <g id="Icon_Instagram" transform="translate(0.303 -48)">
    <g id="Icon_Instagram-2" data-name="Icon_Instagram" transform="translate(1241.697 -870)">
      <rect id="Rect치ngulo_49" data-name="Rect치ngulo 49" width="33" height="33" transform="translate(-1242 918)" fill="none"/>
      <g id="Grupo_294" data-name="Grupo 294" transform="translate(-1237.287 923.315)">
        <g id="Grupo_293" data-name="Grupo 293" transform="translate(0.287 -0.315)" clip-path="url(#clip-path)">
          <path id="Trazado_736" data-name="Trazado 736" d="M6.908.082a8.623,8.623,0,0,0-2.86.554A5.768,5.768,0,0,0,1.962,2,5.778,5.778,0,0,0,.605,4.09,8.662,8.662,0,0,0,.063,6.954C.008,8.212,0,8.613,0,11.815s.02,3.6.08,4.862a8.645,8.645,0,0,0,.554,2.86A5.773,5.773,0,0,0,2,21.622a5.782,5.782,0,0,0,2.091,1.356,8.654,8.654,0,0,0,2.863.543c1.258.055,1.659.068,4.86.062s3.6-.02,4.862-.08a8.667,8.667,0,0,0,2.86-.554,6.026,6.026,0,0,0,3.442-3.455,8.634,8.634,0,0,0,.543-2.862c.055-1.258.068-1.66.062-4.862s-.021-3.6-.08-4.86a8.648,8.648,0,0,0-.554-2.861,5.785,5.785,0,0,0-1.364-2.086A5.771,5.771,0,0,0,19.493.606,8.626,8.626,0,0,0,16.631.064C15.373.008,14.971,0,11.769,0s-3.6.02-4.861.08M7.046,21.4a6.539,6.539,0,0,1-2.19-.4A3.675,3.675,0,0,1,3.5,20.118a3.664,3.664,0,0,1-.884-1.354,6.531,6.531,0,0,1-.41-2.189c-.058-1.243-.072-1.616-.078-4.764s.005-3.521.06-4.765a6.528,6.528,0,0,1,.4-2.19A3.658,3.658,0,0,1,3.466,3.5a3.653,3.653,0,0,1,1.354-.884A6.525,6.525,0,0,1,7.009,2.2c1.244-.059,1.616-.071,4.764-.078s3.521,0,4.765.06a6.513,6.513,0,0,1,2.189.4,3.649,3.649,0,0,1,1.358.879,3.651,3.651,0,0,1,.885,1.355,6.509,6.509,0,0,1,.41,2.188c.059,1.244.073,1.616.078,4.764s-.005,3.521-.06,4.765a6.538,6.538,0,0,1-.4,2.191,3.906,3.906,0,0,1-2.234,2.242,6.53,6.53,0,0,1-2.188.41c-1.244.058-1.616.072-4.765.078s-3.52-.006-4.764-.06m9.613-15.91a1.415,1.415,0,1,0,1.412-1.417,1.415,1.415,0,0,0-1.412,1.417M5.737,11.8A6.055,6.055,0,1,0,11.78,5.737,6.054,6.054,0,0,0,5.737,11.8m2.124,0A3.931,3.931,0,1,1,11.8,15.722,3.931,3.931,0,0,1,7.861,11.8" transform="translate(-0.269 0.095)" fill="#008eff"/>
        </g>
      </g>
    </g>
  </g>
</svg>
