<svg xmlns="http://www.w3.org/2000/svg" xmlns:xlink="http://www.w3.org/1999/xlink" width="33" height="33" viewBox="0 0 33 33">
  <defs>
    <clipPath id="clip-path">
      <rect id="Rect치ngulo_42" data-name="Rect치ngulo 42" width="23.408" height="22.69" fill="#008eff"/>
    </clipPath>
  </defs>
  <g id="Icon_Tiktok" transform="translate(1199 -918)">
    <rect id="Rect치ngulo_50" data-name="Rect치ngulo 50" width="33" height="33" transform="translate(-1199 918)" fill="none"/>
    <g id="Grupo_296" data-name="Grupo 296" transform="translate(-1194 923)">
      <g id="Grupo_295" data-name="Grupo 295" clip-path="url(#clip-path)">
        <path id="Trazado_737" data-name="Trazado 737" d="M231.774,2.9A3.471,3.471,0,0,1,230.255.632,3.47,3.47,0,0,1,230.2,0h-2.49l0,9.981a2.092,2.092,0,1,1-2.09-2.172,2.06,2.06,0,0,1,.618.1V5.363A4.582,4.582,0,1,0,230.2,9.9V4.841a5.923,5.923,0,0,0,3.465,1.114V3.465a3.443,3.443,0,0,1-1.887-.561" transform="translate(-215.682)" fill="#008eff"/>
        <path id="Trazado_738" data-name="Trazado 738" d="M0,715.151H4.013L3.644,716.3H2.6v4.245h-1.3V716.3L0,716.3Z" transform="translate(0 -697.853)" fill="#008eff"/>
        <path id="Trazado_739" data-name="Trazado 739" d="M437.681,715.151h4.106l-.368,1.148h-1.132v4.245h-1.3V716.3l-1.305,0Z" transform="translate(-427.094 -697.853)" fill="#008eff"/>
        <path id="Trazado_740" data-name="Trazado 740" d="M176.022,786.061h1.287v3.677H176.03Z" transform="translate(-171.765 -767.048)" fill="#008eff"/>
        <path id="Trazado_741" data-name="Trazado 741" d="M250.308,714.524h1.285v2.511l1.274-1.25H254.4l-1.611,1.563,1.8,2.583h-1.416l-1.2-1.791-.381.37v1.421h-1.285Z" transform="translate(-244.254 -697.241)" fill="#008eff"/>
        <path id="Trazado_742" data-name="Trazado 742" d="M790.573,714.524h1.285v2.511l1.274-1.25h1.534l-1.611,1.563,1.8,2.583h-1.416l-1.2-1.791-.381.37v1.421h-1.285Z" transform="translate(-771.452 -697.241)" fill="#008eff"/>
        <path id="Trazado_743" data-name="Trazado 743" d="M177.123,715.79a.648.648,0,1,1-.648-.648.648.648,0,0,1,.648.648" transform="translate(-171.575 -697.845)" fill="#008eff"/>
        <path id="Trazado_744" data-name="Trazado 744" d="M589.169,756.077a2.2,2.2,0,1,0,2.2,2.2,2.2,2.2,0,0,0-2.2-2.2m0,3.271a1.07,1.07,0,1,1,1.07-1.07,1.07,1.07,0,0,1-1.07,1.07" transform="translate(-572.771 -737.79)" fill="#008eff"/>
      </g>
    </g>
  </g>
</svg>
