<svg xmlns="http://www.w3.org/2000/svg" xmlns:xlink="http://www.w3.org/1999/xlink" width="44" height="44" viewBox="0 0 44 44">
  <defs>
    <linearGradient id="linear-gradient" x1="0.5" x2="0.5" y2="1" gradientUnits="objectBoundingBox">
      <stop offset="0" stop-color="#faff73"/>
      <stop offset="1" stop-color="#ebb64b"/>
    </linearGradient>
    <filter id="Rectángulo_137" x="0" y="0" width="44" height="44" filterUnits="userSpaceOnUse">
      <feOffset dy="3" input="SourceAlpha"/>
      <feGaussianBlur stdDeviation="3" result="blur"/>
      <feFlood flood-opacity="0.161"/>
      <feComposite operator="in" in2="blur"/>
      <feComposite in="SourceGraphic"/>
    </filter>
    <clipPath id="clip-path">
      <rect id="Rectángulo_283" data-name="Rectángulo 283" width="11.16" height="15.5" fill="#fff"/>
    </clipPath>
  </defs>
  <g id="Icon_Espera" transform="translate(-320 21)">
    <g transform="matrix(1, 0, 0, 1, 320, -21)" filter="url(#Rectángulo_137)">
      <g id="Rectángulo_137-2" data-name="Rectángulo 137" transform="translate(9 6)" stroke="#fff" stroke-width="1" fill="url(#linear-gradient)">
        <rect width="26" height="26" rx="13" stroke="none"/>
        <rect x="0.5" y="0.5" width="25" height="25" rx="12.5" fill="none"/>
      </g>
    </g>
    <g id="Grupo_849" data-name="Grupo 849" transform="translate(336.42 -9.75)">
      <g id="Grupo_848" data-name="Grupo 848" clip-path="url(#clip-path)">
        <path id="Trazado_972" data-name="Trazado 972" d="M12.483,14.351A3.623,3.623,0,0,0,14.962,11H10.005a3.623,3.623,0,0,0,2.478,3.351" transform="translate(-6.903 -7.59)" fill="#fff"/>
        <path id="Trazado_973" data-name="Trazado 973" d="M12.681,7.825V7H4v.825A5.507,5.507,0,0,0,6.735,12.58,5.507,5.507,0,0,0,4,17.335v.825h1.24v-.825A4.234,4.234,0,0,1,5.5,15.861a.309.309,0,0,1,.151-.169,2.806,2.806,0,0,1,1.816-.316,2.658,2.658,0,0,1,.869.353A1.735,1.735,0,0,0,9,15.993a2.189,2.189,0,0,0,1.577-.565.309.309,0,0,1,.263-.055.312.312,0,0,1,.207.171,4.255,4.255,0,0,1,.391,1.791v.825h1.24v-.825A5.506,5.506,0,0,0,9.947,12.58a5.506,5.506,0,0,0,2.734-4.755M8.432,12.213a.311.311,0,0,1-.182,0A4.243,4.243,0,0,1,5.241,8.134v-.2a.31.31,0,0,1,.31-.31h5.58a.31.31,0,0,1,.31.31v.2a4.243,4.243,0,0,1-3.009,4.079" transform="translate(-2.761 -4.83)" fill="#fff"/>
        <path id="Trazado_974" data-name="Trazado 974" d="M13.059,36.537a2.318,2.318,0,0,1-.89-.341,2.082,2.082,0,0,0-.678-.282,2.141,2.141,0,0,0-1.309.207A3.631,3.631,0,0,0,10,37.265v.825h4.96v-.825a3.645,3.645,0,0,0-.195-1.184,2.549,2.549,0,0,1-1.706.456" transform="translate(-6.9 -24.759)" fill="#fff"/>
        <path id="Trazado_975" data-name="Trazado 975" d="M.672,1.412A.31.31,0,0,0,.93,1.55h9.3a.31.31,0,0,0,.258-.138l.62-.93A.31.31,0,0,0,10.85,0H.31A.31.31,0,0,0,.052.482Z" transform="translate(0)" fill="#fff"/>
        <path id="Trazado_976" data-name="Trazado 976" d="M10.488,45.138A.31.31,0,0,0,10.23,45H.93a.31.31,0,0,0-.258.138l-.62.93a.31.31,0,0,0,.258.482H10.85a.31.31,0,0,0,.258-.482Z" transform="translate(0 -31.05)" fill="#fff"/>
      </g>
    </g>
  </g>
</svg>
