<svg xmlns="http://www.w3.org/2000/svg" xmlns:xlink="http://www.w3.org/1999/xlink" width="44" height="44" viewBox="0 0 44 44">
  <defs>
    <linearGradient id="linear-gradient" x1="0.5" x2="0.5" y2="1" gradientUnits="objectBoundingBox">
      <stop offset="0" stop-color="#4cc9dc"/>
      <stop offset="1" stop-color="#28cf9d"/>
    </linearGradient>
    <filter id="Rect치ngulo_137" x="0" y="0" width="44" height="44" filterUnits="userSpaceOnUse">
      <feOffset dy="3" input="SourceAlpha"/>
      <feGaussianBlur stdDeviation="3" result="blur"/>
      <feFlood flood-opacity="0.161"/>
      <feComposite operator="in" in2="blur"/>
      <feComposite in="SourceGraphic"/>
    </filter>
  </defs>
  <g id="Icon_Aceptado" transform="translate(-320 21)">
    <g transform="matrix(1, 0, 0, 1, 320, -21)" filter="url(#Rect치ngulo_137)">
      <g id="Rect치ngulo_137-2" data-name="Rect치ngulo 137" transform="translate(9 6)" stroke="#fff" stroke-width="1" fill="url(#linear-gradient)">
        <rect width="26" height="26" rx="13" stroke="none"/>
        <rect x="0.5" y="0.5" width="25" height="25" rx="12.5" fill="none"/>
      </g>
    </g>
    <path id="Trazado_790" data-name="Trazado 790" d="M175.543-696.6l8.115-8.115a.918.918,0,0,1,.67-.287.918.918,0,0,1,.67.287.932.932,0,0,1,.287.682.932.932,0,0,1-.287.682l-8.785,8.809a.919.919,0,0,1-.67.287.919.919,0,0,1-.67-.287l-4.117-4.117a.891.891,0,0,1-.275-.682.977.977,0,0,1,.3-.682.932.932,0,0,1,.682-.287.932.932,0,0,1,.682.287Z" transform="translate(164.117 697.626)" fill="#fff"/>
  </g>
</svg>
