<svg xmlns="http://www.w3.org/2000/svg" xmlns:xlink="http://www.w3.org/1999/xlink" width="44" height="44" viewBox="0 0 44 44">
  <defs>
    <linearGradient id="linear-gradient" x1="0.5" x2="0.5" y2="1" gradientUnits="objectBoundingBox">
      <stop offset="0" stop-color="#0262ad"/>
      <stop offset="1" stop-color="#0141ae"/>
    </linearGradient>
    <filter id="Rect치ngulo_137" x="0" y="0" width="44" height="44" filterUnits="userSpaceOnUse">
      <feOffset dy="3" input="SourceAlpha"/>
      <feGaussianBlur stdDeviation="3" result="blur"/>
      <feFlood flood-opacity="0.161"/>
      <feComposite operator="in" in2="blur"/>
      <feComposite in="SourceGraphic"/>
    </filter>
  </defs>
  <g id="Icon_Rechazado" transform="translate(-320 21)">
    <g transform="matrix(1, 0, 0, 1, 320, -21)" filter="url(#Rect치ngulo_137)">
      <g id="Rect치ngulo_137-2" data-name="Rect치ngulo 137" transform="translate(9 6)" stroke="#fff" stroke-width="1" fill="url(#linear-gradient)">
        <rect width="26" height="26" rx="13" stroke="none"/>
        <rect x="0.5" y="0.5" width="25" height="25" rx="12.5" fill="none"/>
      </g>
    </g>
    <g id="Grupo_852" data-name="Grupo 852" transform="translate(334.204 -9.796)">
      <g id="Grupo_853" data-name="Grupo 853" transform="translate(0.331 0.331)">
        <path id="Trazado_979" data-name="Trazado 979" d="M24.316,14.841a1.244,1.244,0,0,1,.316.045v-2.57a.316.316,0,1,0-.631,0v2.57a1.244,1.244,0,0,1,.316-.045" transform="translate(-16.85 -8.58)" fill="#fff"/>
        <path id="Trazado_980" data-name="Trazado 980" d="M24.263,23.631a.631.631,0,1,0-.631.631.632.632,0,0,0,.631-.631" transform="translate(-16.166 -16.166)" fill="#fff"/>
        <path id="Trazado_981" data-name="Trazado 981" d="M27.465,27.019a1.262,1.262,0,0,1-.446.446l1.818,1.818a.323.323,0,0,0,.446,0,.315.315,0,0,0,0-.446Z" transform="translate(-18.955 -18.955)" fill="#fff"/>
        <path id="Trazado_982" data-name="Trazado 982" d="M17.437,11.583h.292a5.824,5.824,0,0,0-1.494-3.6l-.206.206a.308.308,0,0,1-.436-.436l.206-.206a5.823,5.823,0,0,0-3.6-1.494v.292a.308.308,0,1,1-.616,0V6.051a5.822,5.822,0,0,0-3.6,1.494l.206.206a.308.308,0,0,1-.436.436l-.205-.206a5.822,5.822,0,0,0-1.494,3.6h.293a.308.308,0,1,1,0,.616H6.05a5.822,5.822,0,0,0,1.494,3.6l.205-.206a.308.308,0,1,1,.436.436l-.206.206a5.822,5.822,0,0,0,3.6,1.494v-.292a.308.308,0,1,1,.616,0v.292a5.823,5.823,0,0,0,3.6-1.494l-.206-.206a.308.308,0,0,1,.436-.436l.206.206a5.824,5.824,0,0,0,1.494-3.6h-.292a.308.308,0,1,1,0-.616M15.159,15.16a.925.925,0,0,1-1.308,0l-2.044-2.044a1.219,1.219,0,0,1-.539-.166L9.642,14.574a.308.308,0,0,1-.436-.436l1.625-1.625a1.2,1.2,0,0,1,.134-1.429V8.193a.925.925,0,0,1,1.849,0v2.891a1.221,1.221,0,0,1,.3.724l2.044,2.044a.924.924,0,0,1,0,1.308" transform="translate(-4.425 -4.425)" fill="#fff"/>
        <path id="Trazado_983" data-name="Trazado 983" d="M7.75,0A7.75,7.75,0,1,0,15.5,7.75,7.759,7.759,0,0,0,7.75,0m0,14.26a6.51,6.51,0,1,1,6.51-6.51,6.517,6.517,0,0,1-6.51,6.51" transform="translate(-0.285 -0.285)" fill="#fff"/>
      </g>
    </g>
  </g>
</svg>
