<svg xmlns="http://www.w3.org/2000/svg" xmlns:xlink="http://www.w3.org/1999/xlink" width="44" height="44" viewBox="0 0 44 44">
  <defs>
    <linearGradient id="linear-gradient" x1="0.5" x2="0.5" y2="1" gradientUnits="objectBoundingBox">
      <stop offset="0" stop-color="#0262ad"/>
      <stop offset="1" stop-color="#0141ae"/>
    </linearGradient>
    <filter id="Rect치ngulo_137" x="0" y="0" width="44" height="44" filterUnits="userSpaceOnUse">
      <feOffset dy="3" input="SourceAlpha"/>
      <feGaussianBlur stdDeviation="3" result="blur"/>
      <feFlood flood-opacity="0.161"/>
      <feComposite operator="in" in2="blur"/>
      <feComposite in="SourceGraphic"/>
    </filter>
  </defs>
  <g id="Icon_Rechazado" transform="translate(-320 21)">
    <g transform="matrix(1, 0, 0, 1, 320, -21)" filter="url(#Rect치ngulo_137)">
      <g id="Rect치ngulo_137-2" data-name="Rect치ngulo 137" transform="translate(9 6)" stroke="#fff" stroke-width="1" fill="url(#linear-gradient)">
        <rect width="26" height="26" rx="13" stroke="none"/>
        <rect x="0.5" y="0.5" width="25" height="25" rx="12.5" fill="none"/>
      </g>
    </g>
    <path id="Trazado_911" data-name="Trazado 911" d="M80.223-917.871a6.3,6.3,0,0,1,2.085.355,7.133,7.133,0,0,1,1.925,1.029l.5-.5a.673.673,0,0,1,.5-.2.673.673,0,0,1,.5.2.673.673,0,0,1,.2.5.673.673,0,0,1-.2.5l-.5.5a7.132,7.132,0,0,1,1.029,1.925,6.3,6.3,0,0,1,.355,2.085,5.888,5.888,0,0,1-.071.914,6.567,6.567,0,0,1-.213.914.781.781,0,0,1-.4.515.679.679,0,0,1-.524.035.875.875,0,0,1-.417-.319.545.545,0,0,1-.062-.532,4.262,4.262,0,0,0,.2-.772,4.689,4.689,0,0,0,.062-.754A4.788,4.788,0,0,0,83.736-915a4.788,4.788,0,0,0-3.514-1.455,5.093,5.093,0,0,0-.763.062,4.585,4.585,0,0,0-.816.2.554.554,0,0,1-.515-.071.863.863,0,0,1-.3-.408.7.7,0,0,1,.027-.523.735.735,0,0,1,.47-.4,6.36,6.36,0,0,1,.941-.213A6.533,6.533,0,0,1,80.223-917.871Zm.71,4.4v-.852a.687.687,0,0,0-.2-.506.687.687,0,0,0-.506-.2.762.762,0,0,0-.328.071.556.556,0,0,0-.24.213Zm-.71,8.376a6.136,6.136,0,0,1-2.476-.506,6.524,6.524,0,0,1-2.032-1.375,6.525,6.525,0,0,1-1.375-2.032,6.137,6.137,0,0,1-.506-2.476,6.439,6.439,0,0,1,.328-2.05,5.941,5.941,0,0,1,.949-1.784L73.2-917.232a.673.673,0,0,1-.2-.5.673.673,0,0,1,.2-.5.673.673,0,0,1,.5-.2.673.673,0,0,1,.5.2l12.067,12.067a.673.673,0,0,1,.2.5.673.673,0,0,1-.2.5.673.673,0,0,1-.5.2.673.673,0,0,1-.5-.2l-1.207-1.207a6.693,6.693,0,0,1-1.837.949A6.276,6.276,0,0,1,80.223-905.093Zm0-1.42a4.679,4.679,0,0,0,1.455-.231,5.166,5.166,0,0,0,1.331-.657l-6.9-6.9a4.759,4.759,0,0,0-.639,1.331,5.16,5.16,0,0,0-.213,1.491,4.788,4.788,0,0,0,1.455,3.514A4.788,4.788,0,0,0,80.223-906.513ZM78.8-918.58a.687.687,0,0,1-.506-.2.687.687,0,0,1-.2-.506.687.687,0,0,1,.2-.506.687.687,0,0,1,.506-.2h2.839a.687.687,0,0,1,.506.2.687.687,0,0,1,.2.506.687.687,0,0,1-.2.506.687.687,0,0,1-.506.2ZM79.566-910.861ZM81.571-912.848Z" transform="translate(262.194 909.485)" fill="#fff"/>
  </g>
</svg>
