<svg xmlns="http://www.w3.org/2000/svg" xmlns:xlink="http://www.w3.org/1999/xlink" width="44" height="44" viewBox="0 0 44 44">
  <defs>
    <linearGradient id="linear-gradient" x1="0.5" x2="0.5" y2="1" gradientUnits="objectBoundingBox">
      <stop offset="0" stop-color="#ff7373"/>
      <stop offset="1" stop-color="#eb4b96"/>
    </linearGradient>
    <filter id="Rect치ngulo_137" x="0" y="0" width="44" height="44" filterUnits="userSpaceOnUse">
      <feOffset dy="3" input="SourceAlpha"/>
      <feGaussianBlur stdDeviation="3" result="blur"/>
      <feFlood flood-opacity="0.161"/>
      <feComposite operator="in" in2="blur"/>
      <feComposite in="SourceGraphic"/>
    </filter>
  </defs>
  <g id="Icon_Rechazado" transform="translate(-320 21)">
    <g transform="matrix(1, 0, 0, 1, 320, -21)" filter="url(#Rect치ngulo_137)">
      <g id="Rect치ngulo_137-2" data-name="Rect치ngulo 137" transform="translate(9 6)" stroke="#fff" stroke-width="1" fill="url(#linear-gradient)">
        <rect width="26" height="26" rx="13" stroke="none"/>
        <rect x="0.5" y="0.5" width="25" height="25" rx="12.5" fill="none"/>
      </g>
    </g>
    <path id="Trazado_792" data-name="Trazado 792" d="M401.465-826.814a1.411,1.411,0,0,1-1.035-.43,1.411,1.411,0,0,1-.43-1.035,1.411,1.411,0,0,1,.43-1.035,1.411,1.411,0,0,1,1.035-.43,1.411,1.411,0,0,1,1.035.43,1.411,1.411,0,0,1,.43,1.035,1.411,1.411,0,0,1-.43,1.035A1.411,1.411,0,0,1,401.465-826.814Zm0-4.4a1.411,1.411,0,0,1-1.035-.43,1.411,1.411,0,0,1-.43-1.035v-5.86a1.411,1.411,0,0,1,.43-1.035,1.411,1.411,0,0,1,1.035-.43,1.411,1.411,0,0,1,1.035.43,1.411,1.411,0,0,1,.43,1.035v5.86a1.411,1.411,0,0,1-.43,1.035A1.411,1.411,0,0,1,401.465-831.209Z" transform="translate(-59.465 831.407)" fill="#fff"/>
  </g>
</svg>
