<svg xmlns="http://www.w3.org/2000/svg" xmlns:xlink="http://www.w3.org/1999/xlink" width="44" height="44" viewBox="0 0 44 44">
  <defs>
    <linearGradient id="linear-gradient" x1="0.5" x2="0.5" y2="1" gradientUnits="objectBoundingBox">
      <stop offset="0" stop-color="#4cc9dc"/>
      <stop offset="1" stop-color="#28cf9d"/>
    </linearGradient>
    <filter id="Rectángulo_137" x="0" y="0" width="44" height="44" filterUnits="userSpaceOnUse">
      <feOffset dy="3" input="SourceAlpha"/>
      <feGaussianBlur stdDeviation="3" result="blur"/>
      <feFlood flood-opacity="0.161"/>
      <feComposite operator="in" in2="blur"/>
      <feComposite in="SourceGraphic"/>
    </filter>
    <clipPath id="clip-path">
      <rect id="Rectángulo_282" data-name="Rectángulo 282" width="15.5" height="12.593" fill="#fff"/>
    </clipPath>
  </defs>
  <g id="Icon_Aceptado" transform="translate(-320 21)">
    <g transform="matrix(1, 0, 0, 1, 320, -21)" filter="url(#Rectángulo_137)">
      <g id="Rectángulo_137-2" data-name="Rectángulo 137" transform="translate(9 6)" stroke="#fff" stroke-width="1" fill="url(#linear-gradient)">
        <rect width="26" height="26" rx="13" stroke="none"/>
        <rect x="0.5" y="0.5" width="25" height="25" rx="12.5" fill="none"/>
      </g>
    </g>
    <g id="Grupo_847" data-name="Grupo 847" transform="translate(334.25 -8.296)">
      <g id="Grupo_846" data-name="Grupo 846" transform="translate(0 0)" clip-path="url(#clip-path)">
        <path id="Trazado_970" data-name="Trazado 970" d="M3.391,10.645H.484A.484.484,0,0,0,0,11.129v8.234a.484.484,0,0,0,.484.484H3.391a.484.484,0,0,0,.484-.484V11.129a.484.484,0,0,0-.484-.484M1.942,13.067a.484.484,0,1,1,.489-.484.487.487,0,0,1-.489.484" transform="translate(0 -7.254)" fill="#fff"/>
        <path id="Trazado_971" data-name="Trazado 971" d="M24.4,3.875H20.129V2.422A2.433,2.433,0,0,0,17.688,0h-.974a.483.483,0,0,0-.484.484V4.359H15.208V11.14h.722a.977.977,0,0,1,.819.436l.106.155a1.942,1.942,0,0,0,1.618.862h5.2a1.459,1.459,0,0,0,1.448-1.274l.736-5.812A1.458,1.458,0,0,0,24.4,3.875m-.48,6.355a.482.482,0,0,1-.48.426.239.239,0,0,1-.058,0,.483.483,0,0,1-.421-.538l.484-3.875a.477.477,0,0,1,.538-.421.484.484,0,0,1,.421.538Z" transform="translate(-10.364 0)" fill="#fff"/>
      </g>
    </g>
  </g>
</svg>
