<svg xmlns="http://www.w3.org/2000/svg" xmlns:xlink="http://www.w3.org/1999/xlink" width="44" height="44" viewBox="0 0 44 44">
  <defs>
    <linearGradient id="linear-gradient" x1="0.5" x2="0.5" y2="1" gradientUnits="objectBoundingBox">
      <stop offset="0" stop-color="#faff73"/>
      <stop offset="1" stop-color="#ebb64b"/>
    </linearGradient>
    <filter id="Rect치ngulo_137" x="0" y="0" width="44" height="44" filterUnits="userSpaceOnUse">
      <feOffset dy="3" input="SourceAlpha"/>
      <feGaussianBlur stdDeviation="3" result="blur"/>
      <feFlood flood-opacity="0.161"/>
      <feComposite operator="in" in2="blur"/>
      <feComposite in="SourceGraphic"/>
    </filter>
  </defs>
  <g id="Icon_Espera" transform="translate(-320 21)">
    <g transform="matrix(1, 0, 0, 1, 320, -21)" filter="url(#Rect치ngulo_137)">
      <g id="Rect치ngulo_137-2" data-name="Rect치ngulo 137" transform="translate(9 6)" stroke="#fff" stroke-width="1" fill="url(#linear-gradient)">
        <rect width="26" height="26" rx="13" stroke="none"/>
        <rect x="0.5" y="0.5" width="25" height="25" rx="12.5" fill="none"/>
      </g>
    </g>
    <path id="Trazado_800" data-name="Trazado 800" d="M148.658-886.669a.646.646,0,0,1-.474-.19.638.638,0,0,1-.191-.471.651.651,0,0,1,.191-.475.639.639,0,0,1,.474-.194h3.105a.646.646,0,0,1,.474.19.638.638,0,0,1,.191.471.651.651,0,0,1-.191.475.639.639,0,0,1-.474.194Zm1.549,7.984a.651.651,0,0,0,.475-.191.639.639,0,0,0,.194-.474v-3.105a.646.646,0,0,0-.19-.474.638.638,0,0,0-.471-.191.651.651,0,0,0-.475.191.639.639,0,0,0-.194.474v3.105a.645.645,0,0,0,.19.474A.638.638,0,0,0,150.206-878.685Zm0,5.323a6,6,0,0,1-2.42-.49,6.317,6.317,0,0,1-1.968-1.332,6.318,6.318,0,0,1-1.332-1.968,6,6,0,0,1-.49-2.42,6,6,0,0,1,.49-2.42,6.318,6.318,0,0,1,1.332-1.968,6.32,6.32,0,0,1,1.968-1.332,5.98,5.98,0,0,1,2.412-.49,6,6,0,0,1,2.067.36,6.947,6.947,0,0,1,1.841,1.007l.5-.5a.6.6,0,0,1,.457-.189.673.673,0,0,1,.462.213.637.637,0,0,1,.2.462.637.637,0,0,1-.2.462l-.481.5a6.641,6.641,0,0,1,1.007,1.826,6.048,6.048,0,0,1,.36,2.076,5.991,5.991,0,0,1-.49,2.417,6.319,6.319,0,0,1-1.332,1.968,6.318,6.318,0,0,1-1.968,1.332A6,6,0,0,1,150.21-873.362Zm0-1.331a4.705,4.705,0,0,0,3.456-1.423,4.705,4.705,0,0,0,1.423-3.456,4.705,4.705,0,0,0-1.423-3.456,4.705,4.705,0,0,0-3.456-1.423,4.705,4.705,0,0,0-3.456,1.423,4.705,4.705,0,0,0-1.423,3.456,4.705,4.705,0,0,0,1.423,3.456A4.705,4.705,0,0,0,150.21-874.692ZM150.21-879.572Z" transform="translate(191.79 877.681)" fill="#fff"/>
  </g>
</svg>
