<svg xmlns="http://www.w3.org/2000/svg" width="163.255" height="67.011" viewBox="0 0 163.255 67.011">
  <g id="Brand_SamsLovers" transform="translate(0)">
    <g id="Grupo_495" data-name="Grupo 495" transform="translate(0)">
      <path id="Trazado_774" data-name="Trazado 774" d="M99.959,28.567a14.333,14.333,0,0,1-8.965,2.593A19.189,19.189,0,0,1,79.3,27.117L83.7,19.645a15.294,15.294,0,0,0,8.087,3.3c1.318,0,2.242-.4,2.242-1.275s-1.1-1.231-2.2-1.582c-1.1-.307-3.516-1.1-4.4-1.406a13.6,13.6,0,0,1-4.175-2.241,7.808,7.808,0,0,1-2.769-6.46,9.587,9.587,0,0,1,3.516-7.34C85.852,1.1,88.885,0,92.927,0A17.587,17.587,0,0,1,103.74,3.648l-3.78,7.032a12.554,12.554,0,0,0-7.207-2.9c-1.583,0-2.462.308-2.462,1.231,0,.879,1.407,1.187,2.11,1.406s2.549.747,3.6,1.1a16.455,16.455,0,0,1,5.054,2.549,8.262,8.262,0,0,1,2.857,6.593,10.056,10.056,0,0,1-3.956,7.911" transform="translate(-61.705)" fill="#fff"/>
      <path id="Trazado_775" data-name="Trazado 775" d="M218.413,57.908h-9.36l-.22-1.978a7.761,7.761,0,0,1-5.714,2.505c-4.175,0-8.571-1.846-8.571-7.339s5.538-6.769,8.791-6.9l5.185-.22v-.22c0-1.23-1.01-2.11-3.647-2.11a15.655,15.655,0,0,0-7.032,1.978l-2.417-6.241A26.7,26.7,0,0,1,206.2,35.054c4.614,0,7.251.879,9.229,2.637s2.988,4.175,2.988,7.911Zm-9.8-9.142-1.977.132c-1.055.044-2.2.44-2.2,1.758s1.1,1.758,2.2,1.758a2.743,2.743,0,0,0,1.977-.879Z" transform="translate(-151.374 -27.275)" fill="#fff"/>
      <path id="Trazado_776" data-name="Trazado 776" d="M354.5,57.908h-9.889V46.481c0-2.2-.439-3.428-1.977-3.428s-1.977,1.231-1.977,3.428V57.908h-9.888V46.481c0-2.2-.44-3.428-1.978-3.428s-1.978,1.231-1.978,3.428V57.908h-9.889V35.494h9.889l-.131,2.857a7.251,7.251,0,0,1,6.064-3.3c2.857,0,5.494.659,6.68,3.736,1.67-2.637,3.648-3.736,7.163-3.736,5.494,0,7.911,3.516,7.911,9.449Z" transform="translate(-246.595 -27.275)" fill="#fff"/>
      <path id="Trazado_777" data-name="Trazado 777" d="M514.668,1.386l-5.054,12.526h-8.13l3.955-12.526Z" transform="translate(-390.195 -1.078)" fill="#fff"/>
      <path id="Trazado_778" data-name="Trazado 778" d="M570.393,56.346c-1.758,1.318-4.088,1.978-7.251,1.978A16.747,16.747,0,0,1,552.769,55.2l3.34-5.8a15.733,15.733,0,0,0,7.3,2.373c.616,0,1.275-.088,1.275-.7,0-.791-2.813-1.406-3.736-1.67a26.433,26.433,0,0,1-2.637-.879c-.879-.308-4.176-1.494-4.176-6.153s4.088-7.516,9.449-7.516a16.4,16.4,0,0,1,9.494,2.593l-2.681,5.537a13.346,13.346,0,0,0-6.46-2.11c-.88,0-1.232.264-1.232.747,0,.528,1.1.835,2.418,1.187,1.318.4,2.065.571,3.164,1.011a9.771,9.771,0,0,1,3.208,1.978,7.116,7.116,0,0,1-1.1,10.548" transform="translate(-430.099 -27.12)" fill="#fff"/>
      <path id="Trazado_779" data-name="Trazado 779" d="M20.216,183.9H0V153.571H9.889v22.195H20.216Z" transform="translate(0 -119.491)" fill="#fff"/>
      <path id="Trazado_780" data-name="Trazado 780" d="M267.175,153.571,255.749,183.9H246.08l-11.427-30.325H245.2l5.714,17.58,5.713-17.58Z" transform="translate(-182.579 -119.491)" fill="#fff"/>
      <path id="Trazado_781" data-name="Trazado 781" d="M411.082,183.9H389.107V153.571h21.535v7.823H399v3.3h10.988v7.779H399v3.516h12.086Z" transform="translate(-302.756 -119.491)" fill="#fff"/>
      <path id="Trazado_782" data-name="Trazado 782" d="M531.426,183.9H520l-4.834-10.108H513.89V183.9h-9.933V153.571h13.185c3.735,0,6.592.66,8.79,2.2a8.947,8.947,0,0,1,3.735,7.472c0,6.153-3.735,8.35-5.053,9.142Zm-12.877-22.282a3.385,3.385,0,0,0-2.2-.571h-2.505v5.274h2.505a3.619,3.619,0,0,0,2.2-.527,2.244,2.244,0,0,0,1.1-2.11,2.189,2.189,0,0,0-1.1-2.066" transform="translate(-392.119 -119.491)" fill="#fff"/>
      <path id="Trazado_783" data-name="Trazado 783" d="M645.405,180.752a14.337,14.337,0,0,1-8.966,2.593,19.19,19.19,0,0,1-11.69-4.043l4.395-7.472a15.293,15.293,0,0,0,8.086,3.3c1.318,0,2.242-.4,2.242-1.275s-1.1-1.231-2.2-1.582c-1.1-.307-3.516-1.1-4.4-1.406a13.606,13.606,0,0,1-4.175-2.241,7.811,7.811,0,0,1-2.768-6.46,9.585,9.585,0,0,1,3.516-7.34c1.846-1.538,4.878-2.637,8.922-2.637a17.59,17.59,0,0,1,10.812,3.648l-3.779,7.032a12.558,12.558,0,0,0-7.208-2.9c-1.582,0-2.461.308-2.461,1.23,0,.879,1.407,1.187,2.11,1.406s2.549.747,3.6,1.1a16.453,16.453,0,0,1,5.054,2.549,8.264,8.264,0,0,1,2.856,6.593,10.057,10.057,0,0,1-3.955,7.911" transform="translate(-486.105 -118.412)" fill="#fff"/>
      <path id="Trazado_784" data-name="Trazado 784" d="M79.758,160.486l11.414-11.418a2.387,2.387,0,0,0,0-3.377l-2.864-2.864L72.283,158.856a2.306,2.306,0,0,0,0,3.261l16.029,16.024,2.861-2.862a2.4,2.4,0,0,0,0-3.382Z" transform="translate(-55.717 -111.131)" fill="#fff"/>
      <path id="Trazado_785" data-name="Trazado 785" d="M185.074,158.928l-16.109-16.1L166.09,145.7a2.374,2.374,0,0,0,0,3.353l11.43,11.426L165.99,172.014a2.226,2.226,0,0,0,0,3.145l2.98,2.98,16.1-16.109a2.2,2.2,0,0,0,0-3.1" transform="translate(-128.648 -111.129)" fill="#fff"/>
    </g>
  </g>
</svg>
