<svg xmlns="http://www.w3.org/2000/svg" xmlns:xlink="http://www.w3.org/1999/xlink" width="19.5" height="19.996" viewBox="0 0 19.5 19.996">
  <defs>
    <linearGradient id="linear-gradient" x1="0.335" y1="0.316" x2="0.925" y2="1" gradientUnits="objectBoundingBox">
      <stop offset="0" stop-color="#1454f5"/>
      <stop offset="0.308" stop-color="#5c82f7"/>
      <stop offset="1" stop-color="#c4d2fb"/>
    </linearGradient>
  </defs>
  <g id="Canje" transform="translate(0.5 0.495)">
    <g id="Grupo_868" data-name="Grupo 868" transform="translate(0 0.001)">
      <path id="Unión_17" data-name="Unión 17" d="M1.424,19A1.425,1.425,0,0,1,0,17.575V11.408A1.424,1.424,0,0,1,1.424,9.984h.948a1.422,1.422,0,0,1,1.422,1.424v6.167A1.423,1.423,0,0,1,2.372,19Zm3.794-8.387,2.168-.819a2.636,2.636,0,0,1,1.732-.043l2.15.7a2.167,2.167,0,0,1-1.226,4.155L8.471,14.2a.711.711,0,1,0-.364,1.374l1.571.415a3.672,3.672,0,0,0,4.349-2.4,3.565,3.565,0,0,0-.181-2.557l1.512-.795a2.135,2.135,0,0,1,2.726.624,2.167,2.167,0,0,1-.464,3.014l-4.626,3.367a4,4,0,0,1-2.349.773l-5.427.036Zm6.686-2.8A35.23,35.23,0,0,1,8.735,4.632a1.127,1.127,0,0,1,.139-1.448A27.469,27.469,0,0,1,11.72.338a1.426,1.426,0,0,1,.536-.3,1.24,1.24,0,0,1,1.1.259,29.2,29.2,0,0,1,2.895,2.891,1.207,1.207,0,0,1,0,1.687A28.475,28.475,0,0,1,13.4,7.717a1.375,1.375,0,0,1-.825.345A1.114,1.114,0,0,1,11.9,7.809Z" transform="translate(0)" stroke="rgba(0,0,0,0)" stroke-width="1" fill="url(#linear-gradient)"/>
    </g>
  </g>
</svg>
