<svg id="Icon_whatsapp" xmlns="http://www.w3.org/2000/svg" width="25" height="25" viewBox="0 0 25 25">
  <rect id="Rect치ngulo_52" data-name="Rect치ngulo 52" width="25" height="25" fill="none"/>
  <g id="whatsapp-svgrepo-com" transform="translate(5 5.342)">
    <path id="Exclusi칩n_1" data-name="Exclusi칩n 1" d="M0,15H0l1.29-3.867A7.376,7.376,0,1,1,4.2,13.895L0,15ZM4.846,2.588a.7.7,0,0,0-.5.207l-.454.453A2.318,2.318,0,0,0,3.167,5.5,4.962,4.962,0,0,0,4.6,7.762L5.92,9.08,7.24,10.4a4.2,4.2,0,0,0,2.791,1.5,2.411,2.411,0,0,0,1.722-.789l.455-.455a.7.7,0,0,0,.123-.83,5.267,5.267,0,0,0-1.594-1.378.822.822,0,0,0-.4-.117.427.427,0,0,0-.393.226,5.9,5.9,0,0,1-.512.558,1.1,1.1,0,0,1-.624.222A1.034,1.034,0,0,1,8.08,8.98L7.051,7.949,6.02,6.92a.949.949,0,0,1-.132-1.355,6.614,6.614,0,0,1,.559-.512.419.419,0,0,0,.208-.259.716.716,0,0,0-.1-.53,5.265,5.265,0,0,0-1.378-1.6.715.715,0,0,0-.33-.082Z" fill="#fff"/>
  </g>
</svg>
