<svg id="Icon_menu" xmlns="http://www.w3.org/2000/svg" width="33" height="33" viewBox="0 0 33 33">
  <rect id="Rectángulo_44" data-name="Rectángulo 44" width="33" height="33" fill="none"/>
  <path id="Trazado_773" data-name="Trazado 773" d="M146.812-701.073a1.526,1.526,0,0,0,1.124-.453,1.526,1.526,0,0,0,.453-1.124,1.526,1.526,0,0,0-.453-1.124,1.526,1.526,0,0,0-1.124-.453H121.577a1.526,1.526,0,0,0-1.124.453,1.526,1.526,0,0,0-.453,1.124,1.526,1.526,0,0,0,.453,1.124,1.526,1.526,0,0,0,1.124.453Zm0-7.886a1.526,1.526,0,0,0,1.124-.453,1.526,1.526,0,0,0,.453-1.124,1.526,1.526,0,0,0-.453-1.124,1.526,1.526,0,0,0-1.124-.453H121.577a1.526,1.526,0,0,0-1.124.453,1.526,1.526,0,0,0-.453,1.124,1.526,1.526,0,0,0,.453,1.124,1.526,1.526,0,0,0,1.124.453Zm0-7.433a1.526,1.526,0,0,0,1.124-.453,1.526,1.526,0,0,0,.453-1.124,1.526,1.526,0,0,0-.453-1.124,1.526,1.526,0,0,0-1.124-.453H121.577a1.526,1.526,0,0,0-1.124.453,1.526,1.526,0,0,0-.453,1.124,1.526,1.526,0,0,0,.453,1.124,1.526,1.526,0,0,0,1.124.453Z" transform="translate(-116.695 727.037)" fill="#fff"/>
</svg>
