<svg xmlns="http://www.w3.org/2000/svg" xmlns:xlink="http://www.w3.org/1999/xlink" width="18.003" height="20.267" viewBox="0 0 18.003 20.267">
  <defs>
    <linearGradient id="linear-gradient" x1="0.198" y1="0.333" x2="1" y2="1" gradientUnits="objectBoundingBox">
      <stop offset="0" stop-color="#1454f5"/>
      <stop offset="0.518" stop-color="#5c82f7"/>
      <stop offset="1" stop-color="#c4d2fb"/>
    </linearGradient>
  </defs>
  <g id="Recompensa" transform="translate(0.502 0.501)">
    <g id="Grupo_866" data-name="Grupo 866" transform="translate(0 0)">
      <path id="Unión_16" data-name="Unión 16" d="M7998.364-11007.618l-.432-.107v-13.618a13.08,13.08,0,0,1-3.863-1.636,2.266,2.266,0,0,1-.669-1.61,2.255,2.255,0,0,1,.669-1.608,2.258,2.258,0,0,1,1.611-.67,2.266,2.266,0,0,1,1.608.67,8.229,8.229,0,0,1,1.212,2.532,8.3,8.3,0,0,1,1.212-2.532,2.268,2.268,0,0,1,1.611-.67,2.256,2.256,0,0,1,1.608.67,2.255,2.255,0,0,1,.669,1.608,2.266,2.266,0,0,1-.669,1.61,13.08,13.08,0,0,1-3.863,1.636v13.618l-.432.107a.538.538,0,0,1-.136.017A.538.538,0,0,1,7998.364-11007.618Zm2.147-17.78a11.138,11.138,0,0,0-1.167,2.787,10.651,10.651,0,0,0,2.79-1.168,1.136,1.136,0,0,0,.332-.811,1.13,1.13,0,0,0-.332-.809,1.144,1.144,0,0,0-.811-.335A1.144,1.144,0,0,0,8000.512-11025.4Zm-5.643,0a1.133,1.133,0,0,0-.335.809,1.139,1.139,0,0,0,.335.811,11.042,11.042,0,0,0,2.787,1.168,10.562,10.562,0,0,0-1.167-2.787,1.133,1.133,0,0,0-.808-.335A1.135,1.135,0,0,0,7994.869-11025.4Zm5.333,7.6h5.665v7.934a.565.565,0,0,1-.429.551l-5.236,1.31Zm-8.637,8.484a.564.564,0,0,1-.432-.551v-7.934h5.667v9.794Zm8.634-9.616v-1.563a10.19,10.19,0,0,0,3.537-1.686,1.78,1.78,0,0,0,.141-.152h2.557a.57.57,0,0,1,.567.567v2.267a.57.57,0,0,1-.567.567Zm-9.633,0a.57.57,0,0,1-.567-.567v-2.267a.57.57,0,0,1,.567-.567h2.557a1.78,1.78,0,0,0,.141.152,10.19,10.19,0,0,0,3.537,1.686v1.563Z" transform="translate(-7990 11026.867)" stroke="rgba(0,0,0,0)" stroke-width="1" fill="url(#linear-gradient)"/>
    </g>
  </g>
</svg>
