<svg xmlns="http://www.w3.org/2000/svg" xmlns:xlink="http://www.w3.org/1999/xlink" width="26.438" height="26.551" viewBox="0 0 26.438 26.551">
  <defs>
    <linearGradient id="linear-gradient" x1="0.5" x2="0.5" y2="1" gradientUnits="objectBoundingBox">
      <stop offset="0" stop-color="#0063ff"/>
      <stop offset="1" stop-color="#0096ff"/>
    </linearGradient>
  </defs>
  <path id="Trazado_905" data-name="Trazado 905" d="M85.63-857.432a1.284,1.284,0,0,1-.946-.382,1.285,1.285,0,0,1-.382-.946,1.285,1.285,0,0,1,.382-.946,1.285,1.285,0,0,1,.946-.382h1.328v-9.293a7.774,7.774,0,0,1,1.659-4.9,7.657,7.657,0,0,1,4.314-2.8v-.929a1.92,1.92,0,0,1,.581-1.411A1.92,1.92,0,0,1,94.923-880a1.92,1.92,0,0,1,1.411.581,1.92,1.92,0,0,1,.581,1.411v.929a7.657,7.657,0,0,1,4.314,2.8,7.774,7.774,0,0,1,1.659,4.9v9.293h1.328a1.285,1.285,0,0,1,.946.382,1.285,1.285,0,0,1,.382.946,1.285,1.285,0,0,1-.382.946,1.284,1.284,0,0,1-.946.382ZM94.923-867.388Zm0,13.939a2.557,2.557,0,0,1-1.875-.78,2.557,2.557,0,0,1-.78-1.875h5.31a2.557,2.557,0,0,1-.78,1.875A2.557,2.557,0,0,1,94.923-853.449Zm-5.31-6.638h10.62v-9.293a5.113,5.113,0,0,0-1.56-3.75,5.113,5.113,0,0,0-3.75-1.56,5.113,5.113,0,0,0-3.75,1.56,5.113,5.113,0,0,0-1.56,3.75Zm-6.638-9.293a1.212,1.212,0,0,1-.946-.431,1.226,1.226,0,0,1-.315-1,12.729,12.729,0,0,1,1.394-4.63,13.463,13.463,0,0,1,2.887-3.734,1.341,1.341,0,0,1,.979-.332,1.12,1.12,0,0,1,.88.5,1.371,1.371,0,0,1,.266,1,1.492,1.492,0,0,1-.5.929,10.443,10.443,0,0,0-2.124,2.854,11.065,11.065,0,0,0-1.1,3.518,1.515,1.515,0,0,1-.465.946A1.341,1.341,0,0,1,82.975-869.38Zm23.9,0a1.341,1.341,0,0,1-.962-.382,1.515,1.515,0,0,1-.465-.946,11.065,11.065,0,0,0-1.1-3.518,10.443,10.443,0,0,0-2.124-2.854,1.492,1.492,0,0,1-.5-.929,1.371,1.371,0,0,1,.266-1,1.12,1.12,0,0,1,.879-.5,1.341,1.341,0,0,1,.979.332,13.463,13.463,0,0,1,2.887,3.734,12.728,12.728,0,0,1,1.394,4.63,1.226,1.226,0,0,1-.315,1A1.212,1.212,0,0,1,106.87-869.38Z" transform="translate(-81.704 880)" fill="url(#linear-gradient)"/>
</svg>
