<svg id="Icon_Aviso" xmlns="http://www.w3.org/2000/svg" xmlns:xlink="http://www.w3.org/1999/xlink" width="25" height="25" viewBox="0 0 25 25">
  <defs>
    <linearGradient id="linear-gradient" x1="0.5" x2="0.5" y2="1" gradientUnits="objectBoundingBox">
      <stop offset="0" stop-color="#0063ff"/>
      <stop offset="1" stop-color="#0096ff"/>
    </linearGradient>
    <clipPath id="clip-path">
      <rect id="Rectángulo_285" data-name="Rectángulo 285" width="25" height="25" fill="url(#linear-gradient)"/>
    </clipPath>
  </defs>
  <g id="Grupo_854" data-name="Grupo 854" clip-path="url(#clip-path)">
    <path id="Trazado_984" data-name="Trazado 984" d="M16.632,36.632A2.634,2.634,0,0,0,19.263,34H14a2.634,2.634,0,0,0,2.632,2.632" transform="translate(-4.789 -11.632)" fill="url(#linear-gradient)"/>
    <path id="Trazado_985" data-name="Trazado 985" d="M19.263,3.013V2.632a2.632,2.632,0,1,0-5.263,0v.382a9.156,9.156,0,0,1,2.632-.382,9,9,0,0,1,2.632.382" transform="translate(-4.789)" fill="url(#linear-gradient)"/>
    <path id="Trazado_986" data-name="Trazado 986" d="M4.605,1.316A.658.658,0,0,0,4.605,0,4.611,4.611,0,0,0,0,4.605a.658.658,0,0,0,1.316,0A3.293,3.293,0,0,1,4.605,1.316" fill="url(#linear-gradient)"/>
    <path id="Trazado_987" data-name="Trazado 987" d="M5.974,5.316A.658.658,0,0,0,5.974,4,1.976,1.976,0,0,0,4,5.974a.658.658,0,1,0,1.316,0,.658.658,0,0,1,.658-.658" transform="translate(-1.368 -1.368)" fill="url(#linear-gradient)"/>
    <path id="Trazado_988" data-name="Trazado 988" d="M27.263,6a5.263,5.263,0,1,0,5.263,5.263A5.269,5.269,0,0,0,27.263,6M30.3,11.072l-.923.878.23,1.251a.831.831,0,0,1-.332.83.851.851,0,0,1-.893.06l-1.119-.606-1.119.606a.84.84,0,0,1-1.225-.891l.231-1.251-.922-.877a.839.839,0,0,1,.468-1.44l1.261-.167.549-1.148a.839.839,0,0,1,1.514,0l.549,1.148,1.262.167a.839.839,0,0,1,.468,1.439" transform="translate(-7.526 -2.053)" fill="url(#linear-gradient)"/>
    <path id="Trazado_989" data-name="Trazado 989" d="M29.541,12.322l-.273-.57-.273.57a.659.659,0,0,1-.507.368l-.627.084.459.436a.658.658,0,0,1,.193.6l-.114.622.556-.3a.661.661,0,0,1,.626,0l.556.3-.114-.622a.658.658,0,0,1,.193-.6l.459-.436-.627-.084a.658.658,0,0,1-.507-.368" transform="translate(-9.531 -4.02)" fill="url(#linear-gradient)"/>
    <path id="Trazado_990" data-name="Trazado 990" d="M21.75,29H3.987a.987.987,0,1,0,0,1.974H21.75a.987.987,0,0,0,0-1.974" transform="translate(-1.026 -9.921)" fill="url(#linear-gradient)"/>
    <path id="Trazado_991" data-name="Trazado 991" d="M6,19.816H21.789V17.842a6.59,6.59,0,0,1-6.579-6.579,6.518,6.518,0,0,1,1.875-4.592A7.809,7.809,0,0,0,13.895,6,7.9,7.9,0,0,0,6,13.895Z" transform="translate(-2.053 -2.053)" fill="url(#linear-gradient)"/>
  </g>
</svg>
