<svg xmlns="http://www.w3.org/2000/svg" width="14.951" height="14.951" viewBox="0 0 14.951 14.951">
  <path id="Trazado_767" data-name="Trazado 767" d="M86.728-868.786h1.5v-4.485h-1.5Zm.748-5.981a.723.723,0,0,0,.533-.215.723.723,0,0,0,.215-.533.723.723,0,0,0-.215-.533.723.723,0,0,0-.533-.215.723.723,0,0,0-.533.215.723.723,0,0,0-.215.533.723.723,0,0,0,.215.533A.723.723,0,0,0,87.476-874.767Zm0,9.718a7.28,7.28,0,0,1-2.916-.589,7.548,7.548,0,0,1-2.374-1.6,7.549,7.549,0,0,1-1.6-2.374A7.278,7.278,0,0,1,80-872.524a7.28,7.28,0,0,1,.589-2.916,7.549,7.549,0,0,1,1.6-2.373,7.549,7.549,0,0,1,2.374-1.6A7.28,7.28,0,0,1,87.476-880a7.28,7.28,0,0,1,2.915.589,7.549,7.549,0,0,1,2.374,1.6,7.549,7.549,0,0,1,1.6,2.373,7.28,7.28,0,0,1,.589,2.916,7.278,7.278,0,0,1-.589,2.915,7.549,7.549,0,0,1-1.6,2.374,7.548,7.548,0,0,1-2.374,1.6A7.28,7.28,0,0,1,87.476-865.049Zm0-1.5a5.772,5.772,0,0,0,4.242-1.738,5.772,5.772,0,0,0,1.738-4.242,5.772,5.772,0,0,0-1.738-4.242,5.772,5.772,0,0,0-4.242-1.738,5.772,5.772,0,0,0-4.242,1.738,5.772,5.772,0,0,0-1.738,4.242,5.772,5.772,0,0,0,1.738,4.242A5.772,5.772,0,0,0,87.476-866.544ZM87.476-872.524Z" transform="translate(-80 880)" fill="#003087"/>
</svg>
