<svg version="1.2" xmlns="http://www.w3.org/2000/svg" viewBox="0 0 20 20" width="20" height="20">
	<title>Visibility</title>
	<style>
		.s0 { fill: #7c878e } 
		.s1 { fill: none } 
		.s2 { fill: #808080 } 
	</style>
	<g id="Visibility">
		<g id="Icons">
			<path id="Visibility-2" class="s0" d="m10 15.4q-0.7 0-1.5-0.1-0.7-0.2-1.4-0.4-0.8-0.2-1.4-0.5-0.7-0.3-1.3-0.8-0.7-0.4-1.2-0.9-0.6-0.5-1-1.1-0.5-0.6-0.9-1.3-0.4-0.6-0.6-1.3 0.2-0.7 0.6-1.4 0.4-0.6 0.9-1.2 0.4-0.6 1-1.1 0.5-0.5 1.2-1 0.6-0.4 1.3-0.7 0.6-0.3 1.4-0.6 0.7-0.2 1.4-0.3 0.8-0.1 1.5-0.1 0.8 0 1.5 0.1 0.8 0.1 1.5 0.3 0.7 0.3 1.4 0.6 0.7 0.3 1.3 0.7 0.6 0.5 1.2 1 0.5 0.5 1 1.1 0.5 0.6 0.8 1.2 0.4 0.7 0.7 1.4-0.3 0.7-0.7 1.3-0.3 0.7-0.8 1.3-0.5 0.6-1 1.1-0.6 0.5-1.2 0.9-0.6 0.5-1.3 0.8-0.7 0.3-1.4 0.5-0.7 0.3-1.5 0.4-0.7 0.1-1.5 0.1zm0-1.7q0.6 0 1.2-0.1 0.6-0.1 1.1-0.3 0.6-0.1 1.1-0.4 0.5-0.2 1-0.5 0.5-0.3 1-0.7 0.4-0.4 0.8-0.8 0.4-0.4 0.7-0.9 0.3-0.5 0.6-1-0.3-0.5-0.6-1-0.3-0.5-0.7-0.9-0.4-0.5-0.8-0.8-0.5-0.4-1-0.7-0.5-0.3-1-0.6-0.5-0.2-1.1-0.4-0.5-0.1-1.1-0.2-0.6-0.1-1.2-0.1-0.6 0-1.1 0.1-0.6 0.1-1.2 0.2-0.5 0.2-1.1 0.4-0.5 0.3-1 0.6-0.5 0.3-0.9 0.7-0.5 0.3-0.9 0.8-0.4 0.4-0.7 0.9-0.3 0.5-0.6 1 0.3 0.5 0.6 1 0.3 0.5 0.7 0.9 0.4 0.4 0.9 0.8 0.4 0.4 0.9 0.7 0.5 0.3 1 0.5 0.6 0.3 1.1 0.4 0.6 0.2 1.2 0.3 0.5 0.1 1.1 0.1zm0-0.9q0.4 0 0.8-0.1 0.3 0 0.7-0.2 0.3-0.1 0.7-0.3 0.3-0.2 0.5-0.5 0.3-0.3 0.5-0.6 0.2-0.3 0.4-0.6 0.1-0.4 0.2-0.8 0.1-0.3 0-0.7 0.1-0.4 0-0.8-0.1-0.3-0.2-0.7-0.2-0.3-0.4-0.7-0.2-0.3-0.5-0.5-0.2-0.3-0.5-0.5-0.4-0.2-0.7-0.4-0.4-0.1-0.7-0.2-0.4-0.1-0.8 0-0.4-0.1-0.7 0-0.4 0.1-0.8 0.2-0.3 0.2-0.6 0.4-0.3 0.2-0.6 0.5-0.3 0.2-0.5 0.5-0.2 0.4-0.3 0.7-0.2 0.4-0.2 0.7-0.1 0.4-0.1 0.8 0 0.4 0.1 0.7 0 0.4 0.2 0.8 0.1 0.3 0.3 0.6 0.2 0.3 0.5 0.6 0.3 0.3 0.6 0.5 0.3 0.2 0.6 0.3 0.4 0.2 0.8 0.2 0.3 0.1 0.7 0.1z"/>
		</g>
		<path id="Sice" fill-rule="evenodd" class="s1" d="m0 0h20v20h-20z"/>
		<path id="Layer 1" fill-rule="evenodd" class="s2" d="m0.9 4.7l3.4-3.7 14.2 12.9-3.4 3.7z"/>
	</g>
</svg>