<svg xmlns="http://www.w3.org/2000/svg" xmlns:xlink="http://www.w3.org/1999/xlink" width="26" height="26" viewBox="0 0 26 26">
  <defs>
    <clipPath id="clip-path">
      <rect id="Rectángulo_270" data-name="Rectángulo 270" width="17.699" height="18.03" fill="none"/>
    </clipPath>
  </defs>
  <g id="Icon_Configuración" transform="translate(13479 -9309)">
    <g id="Grupo_822" data-name="Grupo 822" transform="translate(-13474 9312)">
      <g id="Grupo_821" data-name="Grupo 821" clip-path="url(#clip-path)">
        <path id="Trazado_967" data-name="Trazado 967" d="M.235,12.141s1.6,2.757,1.6,2.765a1.832,1.832,0,0,0,2.472.667.76.76,0,0,1,1.134.655,1.812,1.812,0,0,0,1.8,1.8h3.205a1.812,1.812,0,0,0,1.8-1.8.767.767,0,0,1,1.137-.655,1.822,1.822,0,0,0,2.47-.667l1.6-2.765a1.834,1.834,0,0,0-.668-2.472.765.765,0,0,1,0-1.308,1.856,1.856,0,0,0,.668-2.472s-1.6-2.761-1.6-2.765a1.833,1.833,0,0,0-2.47-.667A.761.761,0,0,1,12.254,1.8a1.812,1.812,0,0,0-1.8-1.8H7.247a1.812,1.812,0,0,0-1.8,1.8.759.759,0,0,1-1.135.655,1.83,1.83,0,0,0-2.471.667L.235,5.889A1.835,1.835,0,0,0,.9,8.36a.768.768,0,0,1,0,1.309,1.836,1.836,0,0,0-.668,2.472M8.849,4.674A4.341,4.341,0,1,1,4.508,9.015,4.349,4.349,0,0,1,8.849,4.674" transform="translate(0 0)" fill="#fff"/>
      </g>
    </g>
    <rect id="Rectángulo_275" data-name="Rectángulo 275" width="26" height="26" transform="translate(-13479 9309)" fill="none"/>
  </g>
</svg>
