<svg xmlns="http://www.w3.org/2000/svg" xmlns:xlink="http://www.w3.org/1999/xlink" width="26" height="26" viewBox="0 0 26 26">
  <defs>
    <clipPath id="clip-path">
      <rect id="Rect치ngulo_267" data-name="Rect치ngulo 267" width="17.526" height="18" fill="none"/>
    </clipPath>
  </defs>
  <g id="Icon_Recompensas" transform="translate(13379 -9267)">
    <g id="Grupo_815" data-name="Grupo 815" transform="translate(-13374 9272)">
      <g id="Grupo_814" data-name="Grupo 814" clip-path="url(#clip-path)">
        <path id="Trazado_956" data-name="Trazado 956" d="M12.842.032a1.179,1.179,0,0,1,1.04.246,27.417,27.417,0,0,1,2.743,2.739,1.144,1.144,0,0,1,0,1.6,26.811,26.811,0,0,1-2.7,2.7A1.045,1.045,0,0,1,12.51,7.4a33.875,33.875,0,0,1-3-3.009,1.07,1.07,0,0,1,.131-1.373,26.631,26.631,0,0,1,2.7-2.7,1.391,1.391,0,0,1,.508-.287" transform="translate(-1.23 0)" fill="#fff"/>
        <path id="Trazado_957" data-name="Trazado 957" d="M2.248,10.9h-.9A1.349,1.349,0,0,0,0,12.247v5.845A1.349,1.349,0,0,0,1.349,19.44h.9A1.349,1.349,0,0,0,3.6,18.091V12.247A1.349,1.349,0,0,0,2.248,10.9" transform="translate(0 -1.44)" fill="#fff"/>
        <path id="Trazado_958" data-name="Trazado 958" d="M17.886,11.671A2.024,2.024,0,0,0,15.3,11.08l-1.432.752a3.382,3.382,0,0,1,.171,2.424,3.48,3.48,0,0,1-4.12,2.278L8.434,16.14a.674.674,0,0,1,.346-1.3l1.488.394a2.055,2.055,0,0,0,1.161-3.94l-2.036-.663a2.478,2.478,0,0,0-1.64.039L5.7,11.444v7.041l5.142-.035a3.8,3.8,0,0,0,2.225-.732l4.384-3.191a2.055,2.055,0,0,0,.438-2.857" transform="translate(-0.753 -1.388)" fill="#fff"/>
      </g>
    </g>
    <rect id="Rect치ngulo_279" data-name="Rect치ngulo 279" width="26" height="26" transform="translate(-13379 9267)" fill="none"/>
  </g>
</svg>
