<svg xmlns="http://www.w3.org/2000/svg" xmlns:xlink="http://www.w3.org/1999/xlink" width="44" height="44" viewBox="0 0 44 44">
  <defs>
    <linearGradient id="linear-gradient" x1="0.5" x2="0.5" y2="1" gradientUnits="objectBoundingBox">
      <stop offset="0" stop-color="#ff7373"/>
      <stop offset="1" stop-color="#eb4b96"/>
    </linearGradient>
    <filter id="Rectángulo_137" x="0" y="0" width="44" height="44" filterUnits="userSpaceOnUse">
      <feOffset dy="3" input="SourceAlpha"/>
      <feGaussianBlur stdDeviation="3" result="blur"/>
      <feFlood flood-opacity="0.161"/>
      <feComposite operator="in" in2="blur"/>
      <feComposite in="SourceGraphic"/>
    </filter>
    <clipPath id="clip-path">
      <rect id="Rectángulo_284" data-name="Rectángulo 284" width="15.5" height="12.593" transform="translate(0 0)" fill="#fff"/>
    </clipPath>
  </defs>
  <g id="Icon_Rechazado" transform="translate(-320 21)">
    <g transform="matrix(1, 0, 0, 1, 320, -21)" filter="url(#Rectángulo_137)">
      <g id="Rectángulo_137-2" data-name="Rectángulo 137" transform="translate(9 6)" stroke="#fff" stroke-width="1" fill="url(#linear-gradient)">
        <rect width="26" height="26" rx="13" stroke="none"/>
        <rect x="0.5" y="0.5" width="25" height="25" rx="12.5" fill="none"/>
      </g>
    </g>
    <g id="Grupo_850" data-name="Grupo 850" transform="translate(334.25 -8.296)">
      <g id="Grupo_850-2" data-name="Grupo 850" transform="translate(0 0)" clip-path="url(#clip-path)">
        <path id="Trazado_977" data-name="Trazado 977" d="M36.984,9.2H39.89a.484.484,0,0,0,.484-.484V.483A.484.484,0,0,0,39.89,0H36.984A.484.484,0,0,0,36.5.483V8.718a.484.484,0,0,0,.484.484M38.433,6.78a.484.484,0,1,1-.489.484.487.487,0,0,1,.489-.484" transform="translate(-24.875 0.001)" fill="#fff"/>
        <path id="Trazado_978" data-name="Trazado 978" d="M1.463,8.718H5.736v1.453a2.433,2.433,0,0,0,2.441,2.422H9.15a.483.483,0,0,0,.484-.484V8.234h1.022V1.453H9.935a.977.977,0,0,1-.819-.436L9.01.862A1.942,1.942,0,0,0,7.392,0h-5.2A1.459,1.459,0,0,0,.747,1.274L.01,7.086A1.458,1.458,0,0,0,1.463,8.718m.48-6.355a.482.482,0,0,1,.48-.426.239.239,0,0,1,.058,0A.483.483,0,0,1,2.9,2.48L2.417,6.355a.477.477,0,0,1-.538.421.484.484,0,0,1-.421-.538Z" transform="translate(0 0)" fill="#fff"/>
      </g>
    </g>
  </g>
</svg>
