<svg xmlns="http://www.w3.org/2000/svg" width="11.169" height="6.561" viewBox="0 0 11.169 6.561">
  <path id="Icon_desplegar" d="M341.182-697.416l-3.907-3.907a.95.95,0,0,1-.275-.7.95.95,0,0,1,.275-.7.95.95,0,0,1,.7-.275.95.95,0,0,1,.7.275l4.608,4.608a.879.879,0,0,1,.213.326,1.109,1.109,0,0,1,.063.376,1.108,1.108,0,0,1-.063.376.879.879,0,0,1-.213.326l-4.608,4.608a.95.95,0,0,1-.7.275.95.95,0,0,1-.7-.275.95.95,0,0,1-.275-.7.95.95,0,0,1,.275-.7Z" transform="translate(-691.831 -337) rotate(90)" fill="#0b204f"/>
</svg>
