<svg xmlns="http://www.w3.org/2000/svg" xmlns:xlink="http://www.w3.org/1999/xlink" width="51.306" height="54" viewBox="0 0 51.306 54">
  <defs>
    <linearGradient id="linear-gradient" x1="0.5" x2="0.5" y2="1" gradientUnits="objectBoundingBox">
      <stop offset="0" stop-color="#0063ff"/>
      <stop offset="1" stop-color="#0096ff"/>
    </linearGradient>
    <clipPath id="clip-path">
      <rect id="Rectángulo_287" data-name="Rectángulo 287" width="51.306" height="54" fill="url(#linear-gradient)"/>
    </clipPath>
  </defs>
  <g id="Icon_Felicidades" transform="translate(-189.347 -382.381)">
    <g id="Grupo_859" data-name="Grupo 859" transform="translate(189.347 382.382)">
      <g id="Grupo_858" data-name="Grupo 858" transform="translate(0 -0.001)" clip-path="url(#clip-path)">
        <path id="Trazado_993" data-name="Trazado 993" d="M46.536,42.218,45.47,41.153l1.066-1.066L47.6,41.153ZM1.066,3.527,0,2.462,1.066,1.4,2.131,2.462Zm46.816.336a1.2,1.2,0,1,0-1.2-1.2,1.2,1.2,0,0,0,1.2,1.2m-1.2,3.266a1.2,1.2,0,1,0,1.2-1.2,1.2,1.2,0,0,0-1.2,1.2M45.651,6.093a1.2,1.2,0,1,0-1.2-1.2,1.2,1.2,0,0,0,1.2,1.2M50.112,3.7a1.2,1.2,0,1,0,1.2,1.2,1.2,1.2,0,0,0-1.2-1.2m-43,28.08a1.2,1.2,0,1,0-1.2-1.2,1.2,1.2,0,0,0,1.2,1.2m0,2.07a1.195,1.195,0,1,0,1.2,1.194,1.2,1.2,0,0,0-1.2-1.194m-2.23-2.231a1.2,1.2,0,1,0,1.2,1.2,1.2,1.2,0,0,0-1.2-1.2m4.461,0a1.2,1.2,0,1,0,1.2,1.2,1.2,1.2,0,0,0-1.2-1.2m15.6-23.837A7.733,7.733,0,0,0,18.224,3.33a.867.867,0,0,1,0-1.734,9.362,9.362,0,0,1,8.037,4.986c.324-.259.66-.5,1-.724A10.489,10.489,0,0,0,18.224,0C12.29,0,7.462,5.735,7.462,12.784S12.29,25.569,18.224,25.569a9.171,9.171,0,0,0,3.8-.826,16.389,16.389,0,0,1-1.2-6.193A15.613,15.613,0,0,1,24.949,7.785m8.375-2.019c-5.935,0-10.762,5.735-10.762,12.783s4.827,12.784,10.762,12.784S44.085,25.6,44.085,18.549,39.258,5.766,33.324,5.766m8.792,13.651a.867.867,0,0,1-.867-.868c0-5.213-3.556-9.455-7.926-9.455a.867.867,0,1,1,0-1.733c5.326,0,9.659,5.019,9.659,11.188a.867.867,0,0,1-.867.868m-10.4,13.527c-.508,1.433-.614,3.978,2.251,7.554a8.32,8.32,0,0,1,1.671,7.466,6.375,6.375,0,0,1-3.63,4.356.867.867,0,0,0,.3,1.68.878.878,0,0,0,.3-.054,8.011,8.011,0,0,0,4.7-5.518,10.033,10.033,0,0,0-1.988-9.013c-2.889-3.606-2.167-5.669-1.76-6.354a5.578,5.578,0,0,1-1.845-.117m-15.1-5.765-.237,1.02c-.188,1.5.209,3.689,2.488,6.535A8.319,8.319,0,0,1,20.542,42.2a6.377,6.377,0,0,1-3.632,4.356.867.867,0,0,0,.3,1.679.853.853,0,0,0,.3-.054,8.014,8.014,0,0,0,4.7-5.518,10.034,10.034,0,0,0-1.989-9.013c-2.889-3.607-2.166-5.67-1.759-6.354a7.9,7.9,0,0,1-1.845-.116" transform="translate(0 0.001)" fill="url(#linear-gradient)"/>
      </g>
    </g>
  </g>
</svg>
