<svg xmlns="http://www.w3.org/2000/svg" width="17.167" height="11.445" viewBox="0 0 17.167 11.445">
  <path id="Icon_Filtro" d="M127.63-708.555a.923.923,0,0,1-.68-.274.923.923,0,0,1-.274-.68.923.923,0,0,1,.274-.68.923.923,0,0,1,.68-.274h1.907a.923.923,0,0,1,.68.274.923.923,0,0,1,.274.68.923.923,0,0,1-.274.68.923.923,0,0,1-.68.274Zm-3.815-4.769a.923.923,0,0,1-.68-.274.923.923,0,0,1-.274-.68.923.923,0,0,1,.274-.68.922.922,0,0,1,.68-.274h9.537a.922.922,0,0,1,.68.274.923.923,0,0,1,.274.68.923.923,0,0,1-.274.68.923.923,0,0,1-.68.274Zm-2.861-4.769a.923.923,0,0,1-.68-.274.922.922,0,0,1-.274-.68.923.923,0,0,1,.274-.679.923.923,0,0,1,.68-.274h15.26a.923.923,0,0,1,.68.274.923.923,0,0,1,.274.679.922.922,0,0,1-.274.68.923.923,0,0,1-.68.274Z" transform="translate(-120 720)" fill="#fff"/>
</svg>
