<svg xmlns="http://www.w3.org/2000/svg" width="20" height="20" viewBox="0 0 20 20">
  <g id="Visibility" transform="translate(1339.243 -1603.005)">
    <g id="Icons" transform="translate(-1338.581 1605.61)">
      <path id="Visibility-2" data-name="Visibility" d="M49.355-789.795a3.691,3.691,0,0,0,2.711-1.116,3.691,3.691,0,0,0,1.116-2.711,3.691,3.691,0,0,0-1.116-2.711,3.691,3.691,0,0,0-2.711-1.116,3.691,3.691,0,0,0-2.711,1.116,3.691,3.691,0,0,0-1.116,2.711,3.691,3.691,0,0,0,1.116,2.711A3.691,3.691,0,0,0,49.355-789.795Zm0,2.551a9.846,9.846,0,0,1-5.655-1.733,9.85,9.85,0,0,1-3.7-4.646,9.85,9.85,0,0,1,3.7-4.646A9.846,9.846,0,0,1,49.355-800a9.846,9.846,0,0,1,5.655,1.733,9.85,9.85,0,0,1,3.7,4.646,9.85,9.85,0,0,1-3.7,4.646A9.846,9.846,0,0,1,49.355-787.243Zm0-1.7a8.117,8.117,0,0,0,4.412-1.265,8.311,8.311,0,0,0,3.072-3.412,8.311,8.311,0,0,0-3.072-3.412,8.117,8.117,0,0,0-4.412-1.265,8.117,8.117,0,0,0-4.412,1.265,8.311,8.311,0,0,0-3.072,3.412,8.311,8.311,0,0,0,3.072,3.412A8.117,8.117,0,0,0,49.355-788.944Z" transform="translate(-40 800)" fill="#7c878e"/>
    </g>
    <rect id="Sice" width="20" height="20" transform="translate(-1339.243 1603.005)" fill="none"/>
  </g>
</svg>
